<svg xmlns="http://www.w3.org/2000/svg" viewBox="0 0 48 48">
  <path fill="#EA4335" d="M24 9.5c3.54 0 6.73 1.22 9.24 3.62l6.9-6.9C35.95 2.39 30.38 0 24 0 14.64 0 6.56 5.38 2.56 13.22l8.04 6.24C12.58 13.08 17.86 9.5 24 9.5z"/>
  <path fill="#4285F4" d="M46.98 24.55c0-1.57-.14-3.09-.4-4.55H24v9.09h12.94c-.56 3-2.25 5.54-4.81 7.24l7.73 6C44.38 38.14 46.98 31.87 46.98 24.55z"/>
  <path fill="#FBBC05" d="M10.6 28.54A14.5 14.5 0 0 1 9.5 24c0-1.58.28-3.11.77-4.54l-8.04-6.24A23.97 23.97 0 0 0 0 24c0 3.87.93 7.52 2.56 10.78l8.04-6.24z"/>
  <path fill="#34A853" d="M24 48c6.48 0 11.92-2.14 15.9-5.82l-7.73-6c-2.15 1.45-4.9 2.32-8.17 2.32-6.14 0-11.42-3.58-13.4-8.72l-8.04 6.24C6.56 42.62 14.64 48 24 48z"/>
</svg>